<mxfile host="app.diagrams.net" modified="2023-08-28T14:17:50.066Z" agent="Mozilla/5.0 (Windows NT 10.0; Win64; x64) AppleWebKit/537.36 (KHTML, like Gecko) Chrome/116.0.0.0 Safari/537.36 Edg/116.0.1938.62" version="21.6.9" etag="OasaZ4pKOj-H8RFSlFzV" type="github">
  <diagram name="Page-1" id="c6e7F-jItsLcr8_G_tTT">
    <mxGraphModel>
      <root>
        <mxCell id="0" />
        <mxCell id="1" parent="0" />
      </root>
    </mxGraphModel>
  </diagram>
</mxfile>
